#!OML:ASF I:\Actors\actors\Patient Classification 1\Patient 1\Session 1\Subject1.ASF
:FULLY-SPECIFIED
:DEGREES
111
root -0.367203 17.506 7.47677 6.12432 -3.06532 -7.65
lowerback 1.83796 0.166108 4.29137
upperback -6.92046 0.5784 1.34992
thorax -8.27689 0.0506945 -1.02974
lowerneck 0.269581 -13.344 -14.8919
upperneck 13.5383 -20.3643 17.4748
head 7.45158 -9.84046 6.27549
rclavicle 5.2181e-015 4.77083e-015
rhumerus -38.3227 -10.8153 -84.8382
rradius 26.7989
rwrist 33.7619
rhand 1.45034 -34.2866
rfingers 7.12502
rthumb 26.9788 -62.3802
lclavicle 5.2181e-015 4.77083e-015
lhumerus -42.5034 17.0364 77.8466
lradius 26.2621
lwrist -22.7695
lhand -15.1773 -5.23922
lfingers 7.12502
lthumb 10.9937 24.4529
rfemur -1.52386 24.4694 25.5334
rtibia 3.18221
rfoot -10.6793 -20.6246
rtoes -0.967619
lfemur 7.74119 -38.682 -16.1542
ltibia -3.77435
lfoot -15.8791 48.5976
ltoes 9.17725
112
root -0.368522 17.5053 7.47878 6.19091 -3.07921 -7.66675
lowerback 1.78373 0.149979 4.32726
upperback -6.96076 0.559786 1.3884
thorax -8.29053 0.0398776 -1.00708
lowerneck -0.163499 -13.1299 -14.5607
upperneck 13.5223 -19.959 17.1667
head 7.38077 -9.62181 6.15691
rclavicle 7.60351e-015 -1.70955e-014
rhumerus -38.6665 -8.53722 -86.1576
rradius 28.6036
rwrist 30.8243
rhand 1.88157 -35.2197
rfingers 7.12502
rthumb 27.3913 -63.2488
lclavicle 7.60351e-015 -1.70955e-014
lhumerus -42.716 14.4473 79.7609
lradius 28.2896
lwrist -20.0065
lhand -13.9524 -4.11665
lfingers 7.12502
lthumb 12.175 25.509
rfemur -1.60178 24.4658 25.5283
rtibia 3.19971
rfoot -10.6676 -20.5966
rtoes -0.899185
lfemur 7.65581 -38.6363 -16.0659
ltibia -3.7848
lfoot -15.8311 48.5833
ltoes 9.13357
113
root -0.369253 17.5048 7.48005 6.26245 -3.07541 -7.62723
lowerback 1.74414 0.149373 4.35172
upperback -7.01202 0.558793 1.37179
thorax -8.32326 0.0358645 -1.03769
lowerneck -0.425707 -12.8686 -14.1326
upperneck 13.253 -19.4778 16.8907
head 7.18249 -9.37758 6.05885
rclavicle -3.97569e-015 3.97569e-015
rhumerus -39.151 -6.16277 -87.6101
rradius 30.8473
rwrist 27.6337
rhand 2.38211 -36.182
rfingers 7.12502
rthumb 27.87 -64.1345
lclavicle -3.97569e-015 3.97569e-015
lhumerus -43.1254 11.7002 81.7071
lradius 30.8243
lwrist -16.8567
lhand -12.7075 -3.15185
lfingers 7.12502
lthumb 13.3751 26.3988
rfemur -1.69774 24.4302 25.4417
rtibia 3.21438
rfoot -10.705 -20.5483
rtoes -0.783371
lfemur 7.54107 -38.6083 -16.033
ltibia -3.77657
lfoot -15.7729 48.5662
ltoes 8.97056
114
root -0.369494 17.5047 7.48074 6.30056 -3.0564 -7.60376
lowerback 1.76429 0.184529 4.43355
upperback -7.06006 0.611146 1.32866
thorax -8.38475 0.0527061 -1.13325
lowerneck -0.847287 -12.6023 -13.383
upperneck 13.0865 -18.9737 16.417
head 6.99307 -9.10615 5.84017
rclavicle 6.65929e-015 -3.33958e-014
rhumerus -39.7668 -3.94039 -89.0355
rradius 33.4597
rwrist 24.4587
rhand 2.85658 -37.2116
rfingers 7.12502
rthumb 28.3235 -65.0897
lclavicle 6.65929e-015 -3.33958e-014
lhumerus -43.6741 8.94984 83.6316
lradius 33.7697
lwrist -13.455
lhand -11.9532 -2.25293
lfingers 7.12502
lthumb 14.1021 27.2485
rfemur -1.74289 24.3959 25.3903
rtibia 3.20178
rfoot -10.6922 -20.5333
rtoes -0.872553
lfemur 7.51839 -38.7082 -16.0525
ltibia -3.79105
lfoot -15.8268 48.6499
ltoes 8.89522
115
root -0.369738 17.5055 7.48179 6.31895 -3.0391 -7.58703
lowerback 1.81883 0.214119 4.49901
upperback -7.11698 0.659767 1.31723
thorax -8.47673 0.0692554 -1.18613
lowerneck -1.32257 -12.2584 -12.8133
upperneck 13.0423 -18.3726 15.9373
head 6.86139 -8.79174 5.65348
rclavicle 1.41634e-014 0
rhumerus -40.5123 -1.82282 -90.3771
rradius 36.4045
rwrist 21.5135
rhand 3.22856 -38.3954
rfingers 7.12502
rthumb 28.6789 -66.2139
lclavicle 1.41634e-014 0
lhumerus -44.4155 6.54606 85.3792
lradius 37.1182
lwrist -10.3014
lhand -11.2899 -1.8215
lfingers 7.12502
lthumb 14.7412 27.6343
rfemur -1.74161 24.409 25.3719
rtibia 3.17124
rfoot -10.6545 -20.5625
rtoes -1.02191
lfemur 7.53828 -38.8167 -16.0936
ltibia -3.81332
lfoot -15.8999 48.7308
ltoes 9.058
116
root -0.370183 17.507 7.48331 6.31737 -3.01558 -7.5435
lowerback 1.90028 0.191789 4.48453
upperback -7.18337 0.639029 1.35459
thorax -8.59935 0.058312 -1.13675
lowerneck -1.94774 -11.8145 -12.2759
upperneck 13.2607 -17.6628 15.4562
head 6.83316 -8.41322 5.47285
rclavicle -4.52235e-015 -8.34896e-015
rhumerus -41.3528 0.19641 -91.6416
rradius 39.6044
rwrist 19.1085
rhand 3.46629 -39.4515
rfingers 7.12502
rthumb 28.906 -67.2314
lclavicle -4.52235e-015 -8.34896e-015
lhumerus -45.2917 4.59648 86.9443
lradius 40.7012
lwrist -7.38126
lhand -11.5382 -2.38122
lfingers 7.12502
lthumb 14.502 27.092
rfemur -1.72494 24.3842 25.3278
rtibia 3.15696
rfoot -10.6649 -20.5559
rtoes -0.949578
lfemur 7.56411 -38.8735 -16.1663
ltibia -3.82458
lfoot -15.8967 48.7521
ltoes 9.15485
117
root -0.371753 17.5082 7.4842 6.30947 -2.96987 -7.51688
lowerback 1.96692 0.161643 4.46454
upperback -7.23853 0.60721 1.40663
thorax -8.70174 0.0435383 -1.06759
lowerneck -2.68031 -11.3607 -11.6375
upperneck 13.6376 -16.9463 14.859
head 6.86176 -8.02506 5.23148
rclavicle 6.4605e-016 -7.95139e-016
rhumerus -42.193 1.91018 -92.7444
rradius 42.9314
rwrist 17.2178
rhand 3.67412 -40.1343
rfingers 7.12502
rthumb 29.1045 -67.8801
lclavicle 6.4605e-016 -7.95139e-016
lhumerus -46.0183 2.80365 88.4981
lradius 44.262
lwrist -4.42421
lhand -12.55 -3.09668
lfingers 7.12502
lthumb 13.5269 26.444
rfemur -1.72859 24.3244 25.2956
rtibia 3.17602
rfoot -10.7087 -20.5227
rtoes -0.668513
lfemur 7.58264 -38.9167 -16.1958
ltibia -3.84943
lfoot -15.8637 48.756
ltoes 9.10793
118
root -0.374253 17.5092 7.48411 6.32464 -2.92393 -7.49004
lowerback 1.97456 0.155583 4.44668
upperback -7.27382 0.602308 1.44071
thorax -8.74575 0.0425421 -1.02095
lowerneck -3.42491 -10.921 -10.9622
upperneck 14.0076 -16.2481 14.2021
head 6.89476 -7.64912 4.96101
rclavicle -1.00883e-014 3.57812e-015
rhumerus -42.9175 3.24325 -93.6537
rradius 46.2496
rwrist 15.5878
rhand 3.88349 -40.6839
rfingers 7.12502
rthumb 29.3045 -68.3949
lclavicle -1.00883e-014 3.57812e-015
lhumerus -46.5159 1.13857 89.9786
lradius 47.887
lwrist -1.82697
lhand -13.3367 -3.34954
lfingers 7.12502
lthumb 12.7687 26.24
rfemur -1.7629 24.3312 25.2558
rtibia 3.19566
rfoot -10.7463 -20.5505
rtoes -0.435473
lfemur 7.50634 -38.8915 -16.1601
ltibia -3.83286
lfoot -15.7588 48.7182
ltoes 8.78853
119
root -0.37591 17.5098 7.48393 6.34233 -2.88598 -7.43724
lowerback 1.9396 0.175422 4.43201
upperback -7.28948 0.626722 1.44188
thorax -8.74101 0.0555506 -1.01361
lowerneck -4.04915 -10.4631 -10.3855
upperneck 14.2855 -15.5461 13.6815
head 6.90676 -7.2782 4.75637
rclavicle 8.94531e-015 -1.07344e-014
rhumerus -43.4534 4.26586 -94.4199
rradius 49.2519
rwrist 14.5154
rhand 3.8059 -40.6843
rfingers 7.12502
rthumb 29.2304 -68.4082
lclavicle 8.94531e-015 -1.07344e-014
lhumerus -46.8376 -0.405283 91.3564
lradius 51.6123
lwrist 0.413218
lhand -14.0019 -3.31686
lfingers 7.12502
lthumb 12.1273 26.3117
rfemur -1.7887 24.345 25.1868
rtibia 3.1953
rfoot -10.7912 -20.5961
rtoes -0.359829
lfemur 7.44946 -38.9262 -16.1864
ltibia -3.81271
lfoot -15.7264 48.7349
ltoes 8.63281
120
root -0.376373 17.5092 7.4832 6.32833 -2.83537 -7.46755
lowerback 1.9234 0.195606 4.51411
upperback -7.30191 0.661405 1.47626
thorax -8.74396 0.0681208 -1.02612
lowerneck -4.55094 -10.0057 -9.96488
upperneck 14.5496 -14.8574 13.2363
head 6.92112 -6.92437 4.60393
rclavicle 2.98177e-016 1.59028e-015
rhumerus -43.7796 5.03479 -94.9632
rradius 52.0183
rwrist 13.3671
rhand 4.1573 -40.3881
rfingers 7.12502
rthumb 29.5659 -68.0531
lclavicle 2.98177e-016 1.59028e-015
lhumerus -47.0267 -1.83487 92.6984
lradius 55.3603
lwrist 2.77211
lhand -14.7503 -3.22299
lfingers 7.12502
lthumb 11.4056 26.4468
rfemur -1.76913 24.2658 25.2345
rtibia 3.18914
rfoot -10.7582 -20.5995
rtoes -0.575268
lfemur 7.49843 -38.9907 -16.1728
ltibia -3.84866
lfoot -15.8437 48.7254
ltoes 9.05315
121
root -0.377581 17.5082 7.48193 6.30469 -2.76502 -7.55073
lowerback 1.87886 0.210788 4.63059
upperback -7.30979 0.691888 1.54185
thorax -8.72582 0.0779965 -1.02429
lowerneck -5.00461 -9.62 -9.43871
upperneck 14.7847 -14.2606 12.6617
head 6.91798 -6.62167 4.38386
rclavicle -7.85199e-015 -1.51076e-014
rhumerus -43.9287 5.77089 -95.4966
rradius 54.7485
rwrist 10.7346
rhand 2.42115 -39.7478
rfingers 7.12502
rthumb 27.9073 -67.6942
lclavicle -7.85199e-015 -1.51076e-014
lhumerus -47.0466 -3.16756 93.997
lradius 59.0113
lwrist 5.54656
lhand -15.729 -3.3555
lfingers 7.12502
lthumb 10.4616 26.3642
rfemur -1.72146 24.2002 25.3636
rtibia 3.17288
rfoot -10.6611 -20.6472
rtoes -0.922702
lfemur 7.48409 -38.9166 -16.0403
ltibia -3.84086
lfoot -15.7923 48.57
ltoes 9.16853
